<svg width="48" height="42" viewBox="0 0 48 42" fill="none" xmlns="http://www.w3.org/2000/svg">
<path d="M34.5999 0.100037C30.0999 0.100037 26.7 1.90004 24 5.70002C21.3 2.00003 17.9 0.200029 13.4 0.200029C6 0.100037 0 6.60002 0 14.6C0 21.9 5.4 26.6001 10.6 31.1001C11.2 31.6 11.9 32.2 12.5 32.8L14.8 34.8C19.2 38.7 21.4 40.7001 22.4001 41.3001C22.8999 41.6001 23.4999 41.8 24 41.8C24.5001 41.8 25.1001 41.6001 25.5999 41.3001C26.6001 40.7001 28.4001 39.1 33.3999 34.5L35.4 32.7C36.0999 32.1 36.6999 31.5 37.4001 31C42.6999 26.6001 48 22 48 14.6C48 6.60002 42 0.100037 34.5999 0.100037Z" fill="#FF0000"/>
</svg>
