<svg width="29" height="29" viewBox="0 0 29 29" fill="none" xmlns="http://www.w3.org/2000/svg">
<path d="M23.625 5.375H5.625C5.32663 5.375 5.04048 5.49353 4.82951 5.7045C4.61853 5.91548 4.5 6.20163 4.5 6.5V9.41375C4.5 10.0021 4.73963 10.5804 5.15588 10.9966L11.25 17.0908V25.625C11.2502 25.8167 11.2994 26.0051 11.3928 26.1725C11.4862 26.3399 11.6207 26.4806 11.7837 26.5814C11.9468 26.6823 12.1328 26.7398 12.3243 26.7486C12.5157 26.7575 12.7063 26.7173 12.8779 26.6319L17.3779 24.3819C17.7592 24.1906 18 23.8014 18 23.375V17.0908L24.0941 10.9966C24.5104 10.5804 24.75 10.0021 24.75 9.41375V6.5C24.75 6.20163 24.6315 5.91548 24.4205 5.7045C24.2095 5.49353 23.9234 5.375 23.625 5.375ZM16.0796 15.8296C15.975 15.9339 15.8919 16.0579 15.8354 16.1944C15.7788 16.3309 15.7498 16.4772 15.75 16.625V22.6798L13.5 23.8048V16.625C13.5002 16.4772 13.4712 16.3309 13.4146 16.1944C13.3581 16.0579 13.275 15.9339 13.1704 15.8296L6.75 9.41375V7.625H22.5011L22.5034 9.40588L16.0796 15.8296Z" fill="white"/>
</svg>
