<svg width="43" height="43" viewBox="0 0 43 43" fill="none" xmlns="http://www.w3.org/2000/svg">
<path d="M40.5813 43H26.8751C26.1586 43 25.5313 42.373 25.5313 41.6562V30.6375C25.5313 28.3083 23.7398 26.5167 21.4106 26.5167C19.0814 26.5167 17.2897 28.3083 17.2897 30.6375V41.6562C17.2897 42.373 16.6627 43 15.946 43H2.23974C1.52308 43 0.895996 42.373 0.895996 41.6562V20.6042C0.895996 20.2458 1.07516 19.8875 1.25433 19.6187L20.5148 0.358325C21.0523 -0.179175 21.8585 -0.179175 22.396 0.358325L41.6563 19.6187C42.0148 19.977 42.1938 20.6042 41.9251 21.052C41.9251 21.1417 41.8356 21.1417 41.8356 21.2312V41.6562C41.9251 42.373 41.2981 43 40.5813 43ZM28.2188 40.3125H39.2376V20.9625L21.5001 3.225L3.58349 21.1417V40.3125H14.6022V30.6375C14.6022 26.7855 17.5585 23.8292 21.4106 23.8292C25.2626 23.8292 28.2188 26.7855 28.2188 30.6375V40.3125Z" fill="white"/>
</svg>
