<svg width="42" height="43" viewBox="0 0 42 43" fill="none" xmlns="http://www.w3.org/2000/svg">
<path d="M39.8231 43H26.0417C25.3257 43 24.6993 42.3736 24.6993 41.6576V30.6504C24.6993 28.3236 22.82 26.5339 20.5826 26.5339C18.3455 26.5339 16.4662 28.4132 16.4662 30.6504V41.6576C16.4662 42.3736 15.8397 43 15.1238 43H1.34234C0.62643 43 0 42.3736 0 41.6576V20.6275C0 20.2694 0.178981 19.9116 0.35796 19.6431L19.5984 0.402705C20.1353 -0.134235 21.0302 -0.134235 21.4777 0.402705L40.7179 19.6431C40.9864 19.9116 41.076 20.2694 41.076 20.6275V41.6576C41.1654 42.3736 40.5391 43 39.8231 43Z" fill="white"/>
</svg>
