<svg width="431" height="300" viewBox="0 0 431 300" fill="none" xmlns="http://www.w3.org/2000/svg">
<path d="M53.9567 24.5936C50.1794 48.8527 47.6334 73.4211 46.2213 97.9404C45.9222 103.103 45.8109 111.164 52.0298 112.922C57.0452 114.329 62.5824 110.756 66.5057 107.999C78.9852 99.3471 89.524 87.5658 99.4923 76.1361C101.628 73.6884 104.125 71.2548 105.941 68.5398C107.242 66.5985 106.935 64.0523 106.407 61.8578C104.939 55.7878 100.369 50.604 95.9724 46.5175C84.9328 36.2976 71.0899 29.264 57.567 23.0955C54.7358 21.8013 52.2524 26.0426 55.1114 27.3157C66.9718 32.8019 79.0479 38.8579 89.2318 47.2068C93.809 50.9487 98.6575 55.4502 100.995 61.063C101.243 61.6853 101.454 62.3218 101.628 62.9692C101.763 63.4551 101.858 63.9515 101.913 64.4533C101.913 64.8753 101.913 65.2903 101.913 65.7123C101.913 66.289 102.191 65.7123 101.913 65.9655C101.774 66.078 103.116 64.4884 101.871 65.8248C100.744 67.0346 99.7288 68.3851 98.6505 69.6441C89.7535 80.0468 80.4321 90.3089 69.9839 99.1854C65.9284 102.618 60.9407 107.014 55.6192 108.139C54.1654 108.449 53.0454 108.456 52.2941 107.534C51.1672 106.128 50.9585 103.546 50.9446 101.563C50.8751 93.1997 51.9463 84.682 52.6837 76.3682C53.4489 67.7075 54.3462 59.0608 55.3757 50.4282C56.3427 42.2481 57.3791 34.068 58.6452 25.93C59.1391 22.8001 54.4506 21.4637 53.9567 24.5936Z" fill="#333333"/>
<path d="M188.579 28.9252C192.009 50.9405 194.311 73.2371 195.793 95.4353C196.064 99.5359 197.052 104.579 195.793 108.652C195.278 110.34 194.722 111.085 193.393 111.303C189.783 111.887 184.245 107.667 181.129 105.325C169.909 96.8842 160.26 86.0946 151.022 75.5301C149.543 73.8327 148.078 72.1235 146.626 70.4026C146.16 69.854 145.395 68.4472 144.727 68.1237C142.981 67.2656 145.965 69.5304 145.284 68.9888C144.922 68.7145 145.284 69.3475 145.284 68.7356C145.179 67.8073 145.283 66.867 145.59 65.9855C146.981 60.5555 151.53 55.8852 155.676 52.1925C166.264 42.7604 179.404 36.2121 192.162 30.3882C195.014 29.087 192.537 24.8457 189.706 26.1681C177.081 31.9286 164.441 38.4277 153.735 47.4378C148.866 51.5313 144.066 56.4479 141.652 62.4827C140.741 64.7475 139.837 67.8634 140.623 70.3182C141.319 72.4775 143.718 74.5384 145.138 76.1702C154.779 87.424 164.921 98.6778 176.552 107.934C180.934 111.409 186.367 115.755 192.169 116.199C197.803 116.635 200.516 112.084 201.038 106.97C201.817 99.2335 200.405 91.0111 199.765 83.3093C198.99 74.0343 198.063 64.7757 196.982 55.5335C195.904 46.2139 194.735 36.9014 193.296 27.6311C192.788 24.5081 188.092 25.8304 188.579 28.9252Z" fill="#333333"/>
<path d="M190.234 125.462C189.842 120.912 188.906 116.568 187.503 112.448L164.868 91.9358C165.284 92.3148 148.234 72.8156 149.233 73.2516C148.255 72.8174 147.27 72.4021 146.278 72.0062C132.312 66.4325 116.062 64.3543 101.157 67.5635C101.157 67.5635 80.9459 91.3297 74.071 96.7746L59.7347 106.816C59.4209 107.953 59.1382 109.1 58.8865 110.255C56.7997 119.722 56.6049 129.626 56.2223 139.276C55.958 146.028 55.944 152.78 55.9927 159.54C55.9927 162.993 56.0553 166.405 55.2554 169.682C54.1911 174.078 52.139 178.214 50.2191 182.28C46.1705 190.854 42.3863 198.773 43.1724 208.564C43.5167 212.498 44.3367 216.374 45.614 220.106C46.3096 222.217 46.9496 225.593 48.2157 227.4C48.2848 227.59 48.3269 227.789 48.3409 227.991C48.1113 227.991 49.6834 226.24 49.7321 226.584C49.0897 226.305 48.4627 225.99 47.8539 225.642C45.6488 224.003 43.7984 221.64 42.1568 219.452C37.677 213.474 33.8649 206.51 32.105 199.181C31.3676 196.108 30.9364 192.689 31.9102 189.623C33.1832 185.578 37.2596 183.292 39.4091 179.733C42.7481 174.198 43.0402 166.862 39.4091 161.376C37.8787 159.069 34.9153 157.859 32.3415 157.24C25.5244 155.566 18.7908 158.175 13.4345 162.424C6.9095 167.593 1.60884 174.381 0.37063 182.821C-0.686718 190.143 0.641924 197.711 2.7914 204.752C7.20166 219.403 15.0483 233.463 24.6062 245.301C27.2565 248.586 30.359 252.539 34.3449 254.163C38.5187 255.851 43.388 256.112 47.8122 256.527C63.3594 257.969 79.0735 257.976 94.6694 257.976C101.446 257.976 108.235 257.809 115.025 257.691C118.458 257.631 125.398 276.162 137.53 285.001C152.459 295.88 177.538 297.501 177.538 297.501L185.04 255.001C191.933 253.299 188.273 250.344 192.071 243.704C193.984 240.363 195.013 236.115 196.133 232.45C197.012 229.662 197.682 226.81 198.137 223.919C199.152 217.068 198.561 210.147 197.886 203.289C196.495 189.06 194.749 174.873 193.358 160.644C192.212 148.921 191.171 137.199 190.234 125.476C189.984 122.339 185.108 122.311 185.365 125.476C186.969 145.376 188.862 165.249 191.041 185.093C192.085 194.539 193.448 204.035 193.782 213.544C194.041 219.029 193.385 224.52 191.841 229.785C190.894 233.197 189.771 236.557 188.474 239.85C186.901 243.723 185.381 278.348 180.039 292.501C177.538 297.501 167.536 295.001 167.536 295.001L145.031 287.501L130.028 275.001C124.066 274.678 115.025 252.501 115.025 252.501C99.3801 252.733 86.1689 253.158 70.5313 252.75C63.4637 252.567 56.3962 252.306 49.3495 251.709C45.0784 251.35 40.0421 251.251 36.0214 249.535C33.0093 248.248 29.8651 244.105 27.6739 241.32C23.203 235.616 19.2454 229.519 15.8483 223.103C9.30244 210.949 1.7897 194.377 5.90084 180.247C8.14771 172.51 15.8622 164.773 23.4236 162.332C25.9711 161.476 28.7065 161.369 31.312 162.023C32.8285 162.424 33.9415 163.31 35.3397 163.866C35.7501 164.027 35.0197 163.5 35.0127 163.486C35.3675 164.189 35.8822 164.857 36.2161 165.596C36.902 167.152 37.2565 168.837 37.2565 170.54C37.2565 172.244 36.902 173.929 36.2161 175.485C34.4284 179.558 30.4564 181.731 28.4182 185.55C27.0616 188.196 26.414 191.154 26.54 194.131C26.7209 201.228 29.6842 208.199 33.065 214.304C35.9935 219.579 39.6108 225.1 44.2715 228.99C46.6853 231.009 52.7929 233.548 53.2033 228.23C53.3424 226.402 52.3824 224.453 51.7564 222.793C50.5751 219.803 49.6012 216.734 48.8417 213.607C47.8001 209.162 47.6534 204.55 48.4104 200.047C49.3008 195.123 51.5755 190.804 53.7111 186.324C55.798 181.97 57.9753 177.574 59.4222 172.96C61.8986 165.054 60.7439 156.262 60.8621 148.11C61.0012 138.347 61.3421 128.472 62.4133 118.766C62.7846 115.052 63.4886 111.386 64.5135 107.813C65.3823 104.783 81.2392 94.3552 81.2392 94.3552L101.157 72.8156C108.948 70.9261 117.251 70.5692 125.402 71.6193C133.482 72.6598 141.637 75.0076 149.233 78.5759C156.432 81.9577 162.478 94.3552 162.478 94.3552C162.478 94.3552 176.409 100.415 179.204 105.426C179.884 106.645 180.519 107.894 181.108 109.172C183.456 114.318 184.901 119.837 185.379 125.483C185.636 128.592 190.506 128.62 190.234 125.462Z" fill="#333333"/>
<path d="M120 131.96C119.52 141.336 104.696 141.35 104.216 131.96C104.056 128.809 99.1866 128.788 99.3466 131.96C100.147 147.666 124.069 147.673 124.869 131.96C125.029 128.795 120.16 128.802 120 131.96Z" fill="#333333"/>
<path d="M140.691 131.96C140.211 141.336 125.387 141.35 124.907 131.96C124.747 128.809 119.878 128.788 120.038 131.96C120.838 147.666 144.76 147.673 145.56 131.96C145.72 128.795 140.851 128.802 140.691 131.96Z" fill="#333333"/>
<path d="M162.05 115.355C161.87 111.523 160.222 107.912 157.455 105.286C154.689 102.661 151.02 101.227 147.226 101.288C139.324 101.288 132.729 107.288 132.403 115.355C132.27 118.52 137.14 118.52 137.272 115.355C137.759 103.461 156.694 103.447 157.181 115.355C157.313 118.513 162.182 118.527 162.05 115.355Z" fill="#333333"/>
<path d="M109.786 114.898C109.606 111.066 107.958 107.455 105.192 104.83C102.425 102.204 98.7565 100.77 94.9626 100.831C87.0603 100.831 80.4658 106.831 80.1389 114.898C80.0067 118.064 84.8761 118.064 85.0082 114.898C85.4952 103.005 104.43 102.991 104.917 114.898C105.049 118.057 109.919 118.071 109.786 114.898Z" fill="#333333"/>
<path d="M129.853 125.864C129.624 127.615 125.325 128.958 124.01 129.169C121.527 129.57 117.103 128.74 115.663 126.286C115.28 125.624 115.106 126.672 115.51 126.082C115.788 125.674 116.762 125.491 117.2 125.378C118.741 124.921 120.338 124.684 121.944 124.675C123.335 124.675 129.596 124.59 129.923 126.539C130.431 129.655 135.126 128.332 134.618 125.231C133.7 119.646 124.184 119.477 120.163 119.85C116.449 120.194 109.089 121.847 110.633 127.2C112.066 132.187 119.099 134.501 123.621 134.163C128.142 133.826 134.055 130.935 134.716 125.885C135.133 122.734 130.264 122.769 129.853 125.864Z" fill="#333333"/>
<path d="M110.566 68.5383L110.302 83.3089C110.246 86.4811 115.114 86.4811 115.17 83.3089L115.434 68.5383C115.49 65.3661 110.622 65.3661 110.566 68.5383Z" fill="#333333"/>
<path d="M119.528 68.5378L119.264 83.3084C119.209 86.4806 124.077 86.4806 124.132 83.3084L124.397 68.5378C124.247 67.7419 119.584 65.3656 119.528 68.5378Z" fill="#333333"/>
<path d="M128.246 70.1615V83.3086C128.19 86.4808 133.058 86.4808 133.114 83.3086V70.1615C133.17 66.9894 128.301 66.9894 128.246 70.1615Z" fill="#333333"/>
<path d="M313.264 7.95059C311.003 7.91542 307.108 7.91542 305.612 10.0607C305.576 10.1132 305.539 10.1636 305.5 10.212C301.666 16.6822 301.97 24.9655 302.356 32.2377C302.53 35.6279 302.113 35.8639 302.356 39.2471L297.626 37.6829C297.487 33.7722 297.877 37.9701 297.626 34.0665C297.068 25.5029 296.756 15.7401 301.126 8.07504C301.196 7.89694 301.292 7.71659 301.417 7.53561C307.184 -0.700781 322.182 3.5616 329.743 6.12888C343.113 10.6445 354.375 18.909 363.592 29.6353C369.735 36.8026 379.16 48.816 376.26 59.1766C373.456 69.1643 360.601 66.3509 353.645 63.5374C341.069 58.4256 329.777 49.4 320.783 39.0892C319.565 42.474 317.884 45.6912 316.039 48.7457L312.471 45.0952C314.688 41.4644 316.33 37.5061 317.34 33.3631C317.716 31.668 320.262 30.8732 321.41 32.2799C330.439 43.4986 342.306 53.8802 355.794 59.1414C361.095 61.2023 372.489 64.1493 371.794 54.8016C371.022 44.5466 362.055 34.6854 355.266 27.891C347.184 19.6558 337.207 13.5776 326.23 10.2014C322.036 8.83283 317.67 8.07498 313.264 7.95059Z" fill="#333333"/>
<path d="M234.418 0.199669C242.348 -0.39819 254.87 -0.201249 258.348 8.81587C258.447 9.07362 258.501 9.31858 258.517 9.54914C260.879 18.6748 258.886 28.0312 256.115 36.7535L250.884 38.7098C253.193 31.3244 255.788 17.8119 253.625 10.1312C253.603 10.0557 253.585 9.98132 253.57 9.90806C252.04 6.55111 246.979 5.65419 243.816 5.26389C238.105 4.56052 232.185 5.16541 226.565 6.23453C214.745 8.42452 203.401 12.7107 193.057 18.8951C189.099 21.3332 182.131 25.9634 180.916 31.3938L191.149 26.613L194.095 41.5533C197.541 41.537 200.948 41.0364 203.359 40.6501C215.011 38.7692 226.267 34.9221 236.658 29.2697C237.029 29.0598 237.446 28.9503 237.871 28.9517C238.295 28.9531 238.712 29.0654 239.081 29.2777C239.45 29.49 239.758 29.7951 239.976 30.1634C240.194 30.5317 240.314 30.9507 240.324 31.3798C240.839 39.5177 240.512 37.851 241.326 45.9678L236.658 48.3872C236.02 41.7971 235.96 40.0706 235.673 35.2989C223.241 41.5743 208.764 46.208 194.963 46.2981C194.195 46.3035 193.407 46.2839 192.608 46.2355L190.098 30.1634L176.813 36.2904L175.899 33.1595C175.797 23.7304 186.164 16.9815 193.328 13.022C205.814 6.12199 220.186 1.26175 234.418 0.199669Z" fill="#333333"/>
<path d="M429.137 176.835C428.31 172.123 424.859 167.923 421.673 164.582C417.342 160.045 412.272 156.296 406.683 153.497C401.285 150.818 395.191 148.926 389.111 149.453C385.487 149.77 379.727 150.797 378.44 154.939C377.383 158.358 380.298 161.558 382.433 163.788C385.87 167.375 389.758 170.512 392.958 174.338C396.617 178.72 397.904 182.778 396.666 188.462C395.015 195.442 391.635 201.883 386.844 207.178C383.178 211.314 377.891 216.174 372.062 216.392C371.454 216.297 370.839 216.26 370.225 216.28L369.627 216.132C370.452 216.718 370.761 217.384 370.552 218.13C370.749 217.627 370.898 217.106 370.997 216.575C371.693 214.423 372.597 212.355 373.314 210.203C377.62 197.359 377.404 183.158 367.999 172.58C358.866 162.304 353.141 149.467 348.654 136.525C346.225 129.606 344.245 122.534 342.727 115.354C341.44 109.143 341.065 102.933 340.327 96.6446C337.906 75.9938 330.261 54.7945 313.706 41.4798C307.209 36.297 299.678 32.5996 291.632 30.6422C283.586 28.6848 275.216 28.514 267.099 30.1416C249.82 33.4614 234.766 44.4269 224.735 58.8529C218.902 67.3974 214.659 76.9458 212.214 87.0296C209.529 97.7629 209.223 108.693 208.569 119.68C205.967 163.506 201.961 207.263 197.912 250.97C197.819 251.954 197.727 252.939 197.634 253.924C197.633 254.462 197.808 254.986 198.131 255.415C198.454 255.843 198.908 256.152 199.422 256.294C210.858 258.193 222.454 259.34 234.008 260.148C255.851 261.682 278.271 261.935 299.842 257.694C304.973 256.721 310.024 255.355 314.951 253.607C316.106 253.185 317.281 252.489 318.352 252.299C319.453 252.233 320.557 252.273 321.65 252.418C331.138 252.742 340.633 253.016 350.129 253.122C371.109 253.424 392.687 252.538 409.723 238.513C427.885 223.559 432.31 199.209 429.151 176.807C428.713 173.684 424.018 175.013 424.456 178.115C427.204 197.612 423.67 218.805 408.881 232.745C393.188 247.516 371.693 248.487 351.415 248.219C341.997 248.1 332.585 247.833 323.166 247.516C321.483 247.46 319.577 247.129 317.893 247.333C315.737 247.593 313.476 248.923 311.403 249.605C309.073 250.372 306.715 251.012 304.336 251.631C283.634 256.765 261.68 256.737 240.512 255.598C227.172 254.982 213.875 253.63 200.681 251.546L202.468 253.917C206.023 216.026 209.334 178.108 212.047 140.148C213.577 118.681 212.548 95.9764 220.986 75.7969C227.97 59.1412 240.867 44.7223 257.722 37.9841C272.518 32.0758 289.421 32.4486 303.445 40.3333C320.509 49.9412 329.997 68.3061 333.907 87.0929C335.207 93.3458 335.618 99.6198 336.313 105.95C337.045 112.19 338.233 118.366 339.868 124.427C343.451 138.087 348.473 151.746 355.617 163.935C357.042 166.386 358.603 168.753 360.292 171.025C362.309 173.719 364.785 176.04 366.657 178.833C370.789 185.015 372.006 192.4 370.928 199.708C370.169 204.836 368.34 209.612 366.594 214.479C365.453 217.651 365.279 220.324 369.237 221.105C380.59 223.348 391.129 211.223 396.214 202.536C399.372 197.148 401.695 191.036 402.085 184.748C402.391 179.874 400.193 175.66 397.264 171.94C394.189 168.043 390.412 164.843 386.906 161.389C385.661 160.158 382.099 157.282 383.685 155.945C385.515 154.398 389.313 154.292 391.546 154.341C394.709 154.467 397.829 155.125 400.777 156.29C406.886 158.678 412.444 162.312 417.103 166.967C420.178 169.977 423.67 173.761 424.449 178.221C424.992 181.259 429.687 179.937 429.137 176.835Z" fill="#333333"/>
<path d="M274.77 103.025C274.276 114.489 256.051 114.511 255.55 103.025C255.411 99.8665 250.542 99.8524 250.681 103.025C250.854 106.769 252.463 110.298 255.167 112.863C257.871 115.427 261.457 116.826 265.164 116.761C272.899 116.761 279.306 110.902 279.64 103.053C279.779 99.8876 274.909 99.8946 274.77 103.053V103.025Z" fill="#333333"/>
<path d="M298.911 103.025C298.417 114.489 280.192 114.511 279.691 103.025C279.552 99.8665 274.683 99.8524 274.822 103.025C274.995 106.768 276.603 110.296 279.306 112.86C282.008 115.425 285.592 116.824 289.298 116.761C297.033 116.761 303.44 110.902 303.774 103.053C303.913 99.8876 299.043 99.8946 298.904 103.053L298.911 103.025Z" fill="#333333"/>
<path d="M286.399 117.091C285.905 128.556 267.68 128.577 267.179 117.091C267.04 113.933 262.17 113.919 262.31 117.091C262.483 120.834 264.091 124.362 266.793 126.926C269.496 129.491 273.08 130.89 276.786 130.828C284.521 130.828 290.928 124.969 291.261 117.119C291.401 113.954 286.531 113.961 286.392 117.119L286.399 117.091Z" fill="#333333"/>
<path d="M323.97 82.0069C323.644 72.8632 316.04 66.0476 307.081 66.0476C298.121 66.0476 290.525 72.8702 290.191 82.0069C290.08 85.1791 294.949 85.1721 295.06 82.0069C295.582 67.6091 318.579 67.602 319.094 82.0069C319.205 85.165 324.075 85.1791 323.964 82.0069H323.97Z" fill="#333333"/>
<path d="M266.259 81.593C265.932 72.4493 258.329 65.6337 249.37 65.6337C240.41 65.6337 232.814 72.4493 232.487 81.593C232.375 84.7652 237.245 84.7581 237.356 81.593C237.878 67.1951 260.875 67.1881 261.39 81.593C261.501 84.7511 266.371 84.7652 266.259 81.593Z" fill="#333333"/>
<path d="M286.237 95.9131C285.938 98.4663 280.324 100.07 278.425 100.253C275.768 100.506 269.911 99.4229 268.749 96.3703C268.471 95.6669 268.102 96.8556 268.749 95.8709C269.111 95.3434 270.259 95.1675 270.836 94.9565C272.744 94.384 274.724 94.0926 276.714 94.0914C278.439 94.0562 285.952 94.007 286.321 96.5672C286.766 99.6901 291.454 98.3608 291.016 95.2589C290.14 89.0764 279.274 88.9287 274.898 89.2522C270.885 89.5828 262.134 91.2427 263.768 97.2424C265.306 102.869 273.361 105.521 278.418 105.176C283.476 104.832 290.425 101.66 291.1 95.9131C291.503 92.769 286.627 92.7972 286.237 95.9131Z" fill="#333333"/>
<path d="M273.943 111.296L273.686 116.072C273.686 116.725 273.942 117.351 274.399 117.813C274.855 118.275 275.475 118.534 276.12 118.534C276.766 118.534 277.385 118.275 277.841 117.813C278.298 117.351 278.554 116.725 278.554 116.072L278.819 111.296C278.819 110.643 278.562 110.017 278.106 109.556C277.649 109.094 277.03 108.835 276.384 108.835C275.739 108.835 275.12 109.094 274.663 109.556C274.207 110.017 273.95 110.643 273.95 111.296H273.943Z" fill="#333333"/>
<path d="M288.139 223.901C288.139 262.143 338.71 299.351 300.889 299.351C282.727 299.351 265.309 292.056 252.466 279.07C239.624 266.085 232.409 248.473 232.409 230.108C232.409 211.744 239.624 194.132 252.466 181.147C265.309 168.161 282.727 160.866 300.889 160.866C338.71 160.859 288.139 185.652 288.139 223.901Z" fill="#F0BC5E"/>
<path d="M180.238 159.677V298.148C198.279 297.964 215.519 290.589 228.212 277.625C240.905 264.66 248.025 247.155 248.025 228.913C248.025 210.67 240.905 193.165 228.212 180.2C215.519 167.236 198.279 159.861 180.238 159.677Z" fill="#F0BC5E"/>
<path d="M285.663 222.095C285.789 235.424 291.228 247.909 297.44 259.374C300.417 264.874 303.701 270.219 306.727 275.678C308.862 279.49 311.255 283.527 312.194 287.853C314.4 298.023 296.153 295.126 290.95 294.324C276.406 292.055 263.018 284.97 252.885 274.179C231.905 251.819 229.033 216.813 245.929 191.183C254.095 178.838 266.084 169.585 280.015 164.877C287.245 162.474 294.826 161.334 302.435 161.508C305.023 161.564 310.594 161.444 312.174 163.498C312.626 164.082 312.459 164.849 312.055 166.002C311.32 167.813 310.367 169.526 309.217 171.102C306.24 175.61 302.887 179.844 299.819 184.29C292.07 195.543 285.768 208.077 285.629 222.06C285.629 225.232 290.498 225.232 290.498 222.06C290.63 208.324 297.357 196.233 305.029 185.331C308.035 181.061 311.29 176.961 314.073 172.529C315.784 169.807 317.871 166.283 317.112 162.907C316.326 159.391 312.855 157.892 309.683 157.28C303.151 155.979 296.125 156.465 289.594 157.484C273.922 160.015 259.543 167.789 248.76 179.563C226.772 203.625 223.718 241.016 241.902 268.236C250.581 281.218 263.187 291.008 277.831 296.138C285.488 298.805 293.544 300.109 301.642 299.993C306.059 299.923 311.582 299.55 314.907 296.174C321.418 289.562 313.516 277.745 310.038 271.661C303.026 259.331 295.166 247.086 291.868 233.082C291.017 229.482 290.569 225.797 290.533 222.095C290.505 218.923 285.635 218.916 285.663 222.095Z" fill="#333333"/>
<path d="M175.245 158.189V296.653L177.68 294.191C150.432 293.811 125.438 276.389 116.089 250.336C112.468 240.284 111.287 229.499 112.645 218.889C114.004 208.279 117.862 198.154 123.895 189.366C129.929 180.577 137.961 173.382 147.317 168.385C156.673 163.388 167.078 160.735 177.659 160.651C180.789 160.608 180.796 155.685 177.659 155.727C148.157 156.135 121.431 175.048 111.373 203.197C101.383 231.24 110.183 263.672 132.902 282.586C145.523 293.09 161.313 298.924 177.659 299.122C178.302 299.113 178.916 298.85 179.37 298.391C179.825 297.931 180.084 297.31 180.093 296.66V158.189C180.114 155.024 175.245 155.017 175.245 158.189Z" fill="#333333"/>
<path d="M177.761 157.871V296.342C177.77 296.992 178.029 297.613 178.484 298.073C178.938 298.532 177.841 298.925 178.484 298.935C207.985 298.527 236.423 279.482 246.481 251.334C256.498 223.312 247.706 190.844 224.98 171.91C212.349 161.411 196.552 155.587 180.202 155.402C179.821 155.397 167.544 156.424 167.255 156.548C165.168 157.443 177.446 160.288 180.202 160.326C207.45 160.705 232.444 178.128 241.793 204.18C245.416 214.235 246.598 225.022 245.239 235.635C243.88 246.247 240.02 256.375 233.984 265.165C227.948 273.955 219.913 281.15 210.554 286.146C201.194 291.142 190.785 293.792 180.202 293.873L182.637 296.335V157.871C182.631 155.228 179.25 154.787 178.122 156.548C177.896 156.9 177.761 157.341 177.761 157.871Z" fill="#333333"/>
<path d="M159.887 207.936C159.087 192.23 135.164 192.223 134.364 207.936C134.204 211.102 139.074 211.095 139.234 207.936C139.714 198.561 154.537 198.546 155.017 207.936C155.177 211.087 160.047 211.109 159.887 207.936Z" fill="#333333"/>
<path d="M205.31 248.74C215.272 246.545 220.934 236.319 219.063 226.436C217.157 216.364 208.065 209.513 198.02 211.04C194.932 211.511 196.246 216.252 199.314 215.787C215.96 213.255 220.385 240.405 204.009 243.992C200.949 244.696 202.243 249.415 205.303 248.74H205.31Z" fill="#333333"/>
<path d="M140.643 225.436C136.65 236.359 125.443 243.329 114.118 239.616C111.134 238.638 109.854 243.386 112.825 244.363C126.807 248.949 140.462 240.073 145.338 226.779C146.43 223.804 141.721 222.517 140.643 225.471V225.436Z" fill="#333333"/>
</svg>
