<svg width="28" height="29" viewBox="0 0 28 29" fill="none" xmlns="http://www.w3.org/2000/svg">
<path d="M1.50972 28.5C1.62929 28.5144 1.75016 28.5144 1.86972 28.5L7.86972 27C8.13589 26.9367 8.37969 26.8018 8.57472 26.61L27.0097 8.11498C27.5685 7.55289 27.8821 6.79253 27.8821 5.99998C27.8821 5.20742 27.5685 4.44707 27.0097 3.88498L24.6397 1.49998C24.3611 1.22105 24.0302 0.999771 23.666 0.848798C23.3019 0.697825 22.9115 0.620117 22.5172 0.620117C22.123 0.620117 21.7326 0.697825 21.3684 0.848798C21.0042 0.999771 20.6733 1.22105 20.3947 1.49998L1.95972 19.935C1.76591 20.1309 1.62634 20.3739 1.55472 20.64L0.0547246 26.64C0.000811402 26.8341 -0.0134582 27.037 0.012767 27.2367C0.0389921 27.4365 0.105175 27.6288 0.207367 27.8024C0.309559 27.976 0.445667 28.1272 0.607571 28.2471C0.769476 28.3669 0.95386 28.4529 1.14972 28.5C1.26929 28.5144 1.39016 28.5144 1.50972 28.5ZM22.5097 3.61498L24.8947 5.99998L22.5097 8.38498L20.1397 5.99998L22.5097 3.61498ZM4.37472 21.765L18.0097 8.11498L20.3947 10.5L6.74472 24.15L3.57972 24.93L4.37472 21.765Z" fill="white"/>
</svg>
