<svg width="24" height="22" viewBox="0 0 24 22" fill="none" xmlns="http://www.w3.org/2000/svg">
<path d="M17.3 2.04999C20.15 2.04999 22.5 4.64999 22.5 7.79999C22.5 11.2 19.55 13.3 16.75 15.8C13.95 18.3 12.5 19.65 12 19.95C11.45 19.6 9.65 17.95 7.25 15.8C4.4 13.3 1.5 11.2 1.5 7.79999C1.5 4.64999 3.85 2.04999 6.7 2.04999C8.8 2.04999 9.95 3.04999 10.75 4.19999C11.7 5.49999 11.85 6.14999 12 6.14999C12.15 6.14999 12.3 5.49999 13.25 4.19999C14.05 3.04999 15.2 2.04999 17.3 2.04999V2.04999ZM17.3 0.549988C15.05 0.549988 13.35 1.44999 12 3.34999C10.65 1.49999 8.95 0.599988 6.7 0.599988C3 0.549988 0 3.79999 0 7.79999C0 11.45 2.7 13.8 5.3 16.05C5.6 16.3 5.95 16.6 6.25 16.9L7.4 17.9C9.6 19.85 10.7 20.85 11.2 21.15C11.45 21.3 11.75 21.4 12 21.4C12.3 21.4 12.55 21.3 12.8 21.15C13.3 20.85 14.2 20.05 16.7 17.75L17.7 16.85C18.05 16.55 18.35 16.25 18.7 16C21.35 13.8 24 11.5 24 7.79999C24 3.79999 21 0.549988 17.3 0.549988V0.549988Z" fill="#262626"/>
</svg>
