<svg width="150" height="150" viewBox="0 0 150 150" fill="none" xmlns="http://www.w3.org/2000/svg">
<g filter="url(#filter0_d_1_126)">
<circle cx="75" cy="75" r="49" fill="url(#paint0_radial_1_126)"/>
</g>
<path d="M44.1754 41.8189C53.8982 28.3921 68.4182 30.3084 74.4628 32.9449C85.6518 29.0866 81.9864 30.0512 96.0691 35.8386C107.335 40.4685 110.152 51.0144 110.152 55.7087C127.321 70.563 116.711 63.4252 119.99 75.1929C122.614 84.6071 119.54 88.3753 117.675 89.0827C119.605 97.9567 114.01 96.4134 109.38 102.972C104.75 109.531 110.538 92.5551 107.644 95.8346C104.75 99.1142 104.557 97.3779 99.3486 91.9764C94.14 86.5748 111.502 80.4016 100.892 82.1378C90.2817 83.874 102.435 72.1063 96.8408 73.6496C92.3652 74.8842 91.6321 73.1352 91.825 72.1063C91.2077 68.8653 89.2528 70.1129 88.3526 71.1417C88.3526 72.3764 85.5232 75.643 84.1085 77.122C86.2691 79.2827 86.0376 82.5236 85.6518 83.874C74.2313 81.4047 79.8644 87.0892 84.1085 90.2402C89.973 91.1661 88.4812 94.0984 87.0022 95.4488C94.2557 96.8378 90.9247 99.2428 88.3526 100.272C96.8408 100.117 91.8893 104.066 88.3526 106.059C92.8282 111.615 86.4877 112.875 82.7581 112.811C75.0415 110.033 79.5429 116.541 82.7581 120.142C77.5108 123.537 70.4116 119.756 67.5179 117.441C61.962 116.978 61.9877 114.161 62.6951 112.811C61.9234 107.602 52.4707 108.76 52.4707 109.917C52.162 111.924 50.2843 112.682 49.3841 112.811C38.7352 107.255 38.9024 98.9212 40.3171 95.4488C29.977 87.8866 29.1925 83.0381 30.0927 81.559C26.6974 56.5575 38.0665 44.6483 44.1754 41.8189Z" fill="#EAECEB"/>
<path d="M69.3046 102.448C65.6393 99.5545 71.2338 98.5899 77.0212 99.5545C80.3007 96.6608 77.5999 89.9088 78.7574 89.7159C79.9149 89.523 79.529 94.5388 82.0369 93.3813C84.5448 92.2238 84.9306 96.0821 82.0369 98.2041C79.1432 100.326 84.5448 103.413 80.8794 103.992C77.2141 104.57 80.8794 107.85 77.5999 111.901C74.3204 115.952 72.97 110.936 75.092 105.921C77.2141 100.905 72.97 105.342 69.3046 102.448Z" fill="#D9E2E2"/>
<path d="M87.2456 65.6017C80.4936 63.2868 83.7731 63.0938 86.6668 61.3576C93.8046 61.3576 86.0881 54.0269 91.6826 52.0978C97.2771 50.1686 92.0684 62.1293 97.8558 61.3576C103.643 60.586 95.7338 55.1844 100.364 53.4482C104.068 52.0592 103.322 59.0427 102.486 62.708C119.076 63.6304 114.253 68.6883 117.919 74.2828C121.584 79.8773 114.832 77.9482 108.659 78.1411C103.72 78.2954 104.543 80.649 105.572 81.8064C88.2101 83.9285 104.801 75.0545 97.8558 74.2828C90.9109 73.5112 95.7338 70.4246 94.7692 66.7592C93.8046 63.0938 94.1905 69.8458 88.596 68.6883C83.0015 67.5309 93.9975 67.9167 87.2456 65.6017Z" fill="#D9E2E2"/>
<path d="M77.7928 79.1057C83.7731 81.9994 77.9857 76.9836 77.7928 73.3183C88.7889 74.0899 82.6157 67.145 81.844 68.8813C81.2267 70.2702 78.886 69.9744 77.7928 69.6529C77.6642 68.8813 77.0597 67.1836 75.6708 66.5663C73.9346 65.7946 75.2849 69.0742 72.7771 70.0387C70.2692 71.0033 68.1472 75.4403 71.8125 75.8261C74.7448 76.1348 77.0212 78.1411 77.7928 79.1057Z" fill="#D9E2E2"/>
<path d="M31.3007 80.0702C33.6157 82.1923 32.6511 82.771 32.844 84.1214C32.008 85.4718 32.381 88.3655 40.5605 89.1372C48.7401 89.9088 48.9844 96.0177 48.0842 98.9758C63.3243 98.5899 48.0842 103.799 54.0645 104.956C60.0448 106.114 60.2377 103.799 62.1668 100.519C64.096 97.2395 57.9227 96.8537 60.2377 92.8025C62.5527 88.7513 62.1668 95.6962 66.4109 95.3104C69.8062 95.0017 72.3269 92.6096 73.1629 91.4521C69.6133 81.575 60.4949 84.8931 56.3794 87.7868C51.7495 88.7128 51.6209 86.3721 52.1353 85.086C53.37 77.8324 49.949 75.376 48.0842 75.0545C50.8621 69.9616 46.0264 67.6595 43.2613 67.145C42.2968 56.7277 60.0448 61.1647 57.9227 63.6726C56.2251 65.6789 56.1865 67.7238 56.3794 68.4954C57.7941 68.4954 60.0834 69.4214 57.9227 73.1254C55.222 77.7553 57.5369 76.0191 57.9227 77.5624C61.318 79.5687 62.1668 76.7264 62.1668 75.0545C61.5238 74.1542 60.6235 71.5821 62.1668 68.4954C63.7101 65.4088 63.7101 60.5217 63.5172 58.4639C65.575 55.313 70.3849 49.6671 73.1629 52.2907C76.6353 55.5702 83.0015 59.6214 81.0723 55.1844C79.1432 50.7474 81.0723 50.1687 81.0723 44.3813C81.0723 38.5939 76.0566 47.4679 75.6708 41.2947C75.3621 36.3561 72.5842 36.6647 71.2338 37.4364C70.0763 38.5296 66.6424 40.06 62.1668 37.4364C57.6912 34.8128 57.4726 40.9731 57.9227 44.3813C57.9227 49.4742 56.8939 50.3616 56.3794 50.1687C53.7558 51.0947 54.6432 52.8695 55.4149 53.6411C54.0259 57.3451 51.6209 56.2133 50.592 55.1844C52.5983 53.0238 49.7561 50.1687 48.0842 49.0112C49.7818 42.375 47.3768 42.002 45.9621 42.645C25.3204 53.4482 28.9857 77.9482 31.3007 80.0702Z" fill="#D9E2E2"/>
<path d="M110.974 91.838C108.273 88.5584 108.466 86.8222 111.938 84.3143C114.408 77.5238 117.854 82.128 119.269 85.2789C118.69 85.4075 117.34 86.5907 116.568 90.2947C115.797 93.9986 114.189 95.1818 113.482 95.3104C112.967 95.9534 111.746 96.1592 110.974 91.838Z" fill="#D9E2E2"/>
<defs>
<filter id="filter0_d_1_126" x="0" y="0" width="150" height="150" filterUnits="userSpaceOnUse" color-interpolation-filters="sRGB">
<feFlood flood-opacity="0" result="BackgroundImageFix"/>
<feColorMatrix in="SourceAlpha" type="matrix" values="0 0 0 0 0 0 0 0 0 0 0 0 0 0 0 0 0 0 127 0" result="hardAlpha"/>
<feMorphology radius="2" operator="dilate" in="SourceAlpha" result="effect1_dropShadow_1_126"/>
<feOffset/>
<feGaussianBlur stdDeviation="12"/>
<feComposite in2="hardAlpha" operator="out"/>
<feColorMatrix type="matrix" values="0 0 0 0 1 0 0 0 0 1 0 0 0 0 1 0 0 0 1 0"/>
<feBlend mode="normal" in2="BackgroundImageFix" result="effect1_dropShadow_1_126"/>
<feBlend mode="normal" in="SourceGraphic" in2="effect1_dropShadow_1_126" result="shape"/>
</filter>
<radialGradient id="paint0_radial_1_126" cx="0" cy="0" r="1" gradientUnits="userSpaceOnUse" gradientTransform="translate(100.5 107.5) rotate(-116.565) scale(83.8526)">
<stop stop-color="white"/>
<stop offset="1" stop-color="#F7F7F7"/>
</radialGradient>
</defs>
</svg>
