<svg width="95" height="67" viewBox="0 0 95 67" fill="none" xmlns="http://www.w3.org/2000/svg">
<g clip-path="url(#clip0_3_9)">
<path d="M11.8929 5.4926C11.0603 10.9105 10.4991 16.3974 10.1879 21.8734C10.1219 23.0264 10.0974 24.8267 11.4682 25.2193C12.5737 25.5335 13.7942 24.7355 14.6589 24.1198C17.4096 22.1875 19.7326 19.5564 21.9297 17.0038C22.4005 16.4571 22.9509 15.9136 23.3512 15.3073C23.6379 14.8737 23.5702 14.305 23.4539 13.8149C23.1303 12.4593 22.123 11.3016 21.1539 10.3889C18.7206 8.10649 15.6694 6.53566 12.6887 5.15803C12.0646 4.86899 11.5172 5.81621 12.1474 6.10054C14.7617 7.32579 17.4234 8.67829 19.6681 10.5429C20.677 11.3786 21.7457 12.3839 22.261 13.6374C22.3156 13.7764 22.3621 13.9186 22.4005 14.0632C22.4302 14.1717 22.4512 14.2825 22.4633 14.3946C22.4633 14.4888 22.4633 14.5815 22.4633 14.6758C22.4633 14.8046 22.5246 14.6758 22.4633 14.7323C22.4327 14.7574 22.7285 14.4024 22.4541 14.7009C22.2056 14.9711 21.9819 15.2727 21.7442 15.5539C19.7831 17.8771 17.7285 20.169 15.4256 22.1514C14.5317 22.918 13.4323 23.8998 12.2593 24.1511C11.9389 24.2203 11.692 24.2219 11.5264 24.016C11.278 23.7019 11.232 23.1253 11.229 22.6824C11.2137 20.8146 11.4498 18.9123 11.6123 17.0556C11.781 15.1214 11.9787 13.1903 12.2057 11.2623C12.4188 9.43544 12.6473 7.60855 12.9263 5.79106C13.0352 5.09205 12.0018 4.79359 11.8929 5.4926Z" fill="white"/>
<path d="M41.5662 6.45999C42.3222 11.3767 42.8296 16.3563 43.1563 21.3139C43.216 22.2297 43.4338 23.356 43.1563 24.2656C43.0428 24.6426 42.9202 24.809 42.6273 24.8577C41.8316 24.9881 40.6109 24.0457 39.9241 23.5226C37.451 21.6375 35.3242 19.2278 33.288 16.8684C32.962 16.4893 32.6391 16.1076 32.319 15.7233C32.2163 15.6008 32.0477 15.2866 31.9004 15.2143C31.5156 15.0227 32.1733 15.5285 32.0232 15.4075C31.9434 15.3463 32.0232 15.4876 32.0232 15.351C32.0001 15.1437 32.023 14.9337 32.0907 14.7368C32.3973 13.5241 33.3999 12.4811 34.3138 11.6564C36.6476 9.54985 39.5439 8.08739 42.356 6.78672C42.9846 6.49612 42.4386 5.5489 41.8146 5.84423C39.0318 7.13075 36.2458 8.58221 33.886 10.5945C32.8128 11.5087 31.7548 12.6067 31.2227 13.9545C31.0219 14.4603 30.8226 15.1562 30.9959 15.7044C31.1493 16.1867 31.678 16.6469 31.991 17.0114C34.1161 19.5247 36.3516 22.0381 38.9152 24.1053C39.8811 24.8814 41.0786 25.852 42.3575 25.9511C43.5993 26.0485 44.1973 25.0321 44.3124 23.89C44.4841 22.1622 44.1729 20.3258 44.0318 18.6058C43.861 16.5344 43.6566 14.4666 43.4184 12.4025C43.1808 10.3211 42.9231 8.24134 42.6059 6.17097C42.4939 5.4735 41.4589 5.76882 41.5662 6.45999Z" fill="white"/>
<path d="M41.9309 28.0199C41.8445 27.0037 41.6382 26.0335 41.329 25.1134L36.3398 20.5323C36.4315 20.617 32.6734 16.2622 32.8936 16.3595C32.678 16.2626 32.4609 16.1698 32.2422 16.0814C29.1639 14.8366 25.5821 14.3725 22.2968 15.0892C22.2968 15.0892 17.8419 20.397 16.3266 21.613L13.1666 23.8556C13.0974 24.1095 13.0351 24.3657 12.9796 24.6236C12.5197 26.7379 12.4767 28.9498 12.3924 31.105C12.3341 32.6129 12.331 34.1209 12.3418 35.6306C12.3418 36.4018 12.3556 37.1638 12.1793 37.8957C11.9447 38.8774 11.4924 39.8011 11.0692 40.7092C10.1768 42.6241 9.34269 44.3927 9.51596 46.5793C9.59185 47.4579 9.77259 48.3235 10.0541 49.157C10.2075 49.6285 10.3485 50.3825 10.6276 50.786C10.6428 50.8284 10.6521 50.8729 10.6552 50.918C10.6046 50.918 10.9511 50.5269 10.9618 50.6038C10.8202 50.5415 10.682 50.4711 10.5478 50.3934C10.0618 50.0274 9.65394 49.4996 9.2921 49.011C8.30467 47.6759 7.46442 46.1206 7.07651 44.4838C6.91397 43.7975 6.81893 43.0339 7.03357 42.3492C7.31416 41.4458 8.21267 40.9352 8.68646 40.1404C9.42243 38.9042 9.48682 37.2659 8.68646 36.0407C8.34913 35.5254 7.69595 35.2552 7.12864 35.117C5.62603 34.7431 4.14182 35.3258 2.9612 36.2747C1.52298 37.4291 0.354617 38.9451 0.0816934 40.83C-0.151365 42.4653 0.141491 44.1555 0.615274 45.728C1.58737 49 3.31691 52.1401 5.42364 54.7839C6.00781 55.5176 6.69166 56.4004 7.57022 56.7631C8.4902 57.1401 9.56348 57.1984 10.5387 57.291C13.9655 57.6131 17.4292 57.6147 20.8668 57.6147C22.3605 57.6147 23.8569 57.5774 25.3535 57.551C26.1102 57.5376 27.6399 61.6762 30.314 63.6502C33.6046 66.0799 39.1325 66.4419 39.1325 66.4419L40.7861 56.9502C42.3054 56.5701 41.4987 55.9102 42.3358 54.4272C42.7575 53.6811 42.9843 52.7324 43.2312 51.9138C43.4249 51.2912 43.5726 50.6542 43.6729 50.0086C43.8966 48.4785 43.7663 46.9328 43.6176 45.4012C43.311 42.2234 42.9261 39.055 42.6195 35.8772C42.3669 33.259 42.1375 30.6411 41.9309 28.023C41.8758 27.3224 40.8011 27.3161 40.8577 28.023C41.2113 32.4673 41.6285 36.9056 42.1088 41.3375C42.3389 43.4471 42.6393 45.5678 42.713 47.6915C42.7701 48.9165 42.6255 50.1428 42.2851 51.3187C42.0764 52.0807 41.8289 52.8311 41.543 53.5665C41.1963 54.4315 40.8612 62.1644 39.6838 65.3252C39.1325 66.4419 36.9279 65.8836 36.9279 65.8836L31.9674 64.2086L28.6605 61.4169C27.3463 61.3448 25.3535 56.3919 25.3535 56.3919C21.9051 56.4437 18.9931 56.5386 15.5463 56.4475C13.9885 56.4066 12.4307 56.3484 10.8775 56.215C9.93607 56.1348 8.82598 56.1127 7.93975 55.7295C7.27583 55.4421 6.58279 54.5168 6.09982 53.8948C5.11435 52.6209 4.24203 51.2593 3.49324 49.8264C2.05042 47.112 0.394481 43.4109 1.30065 40.2552C1.7959 38.5273 3.49631 36.7993 5.16297 36.2542C5.72449 36.063 6.32742 36.0391 6.90172 36.1852C7.23598 36.2747 7.4813 36.4726 7.78949 36.5968C7.87995 36.6327 7.71896 36.515 7.71742 36.5119C7.79562 36.6689 7.90907 36.8181 7.98267 36.9831C8.13385 37.3306 8.21199 37.7069 8.21199 38.0873C8.21199 38.4678 8.13385 38.8442 7.98267 39.1917C7.58863 40.1013 6.71313 40.5866 6.26387 41.4395C5.96485 42.0305 5.82211 42.6911 5.84988 43.3559C5.88976 44.9409 6.54292 46.4978 7.28811 47.8612C7.9336 49.0393 8.73092 50.2723 9.75822 51.1411C10.2903 51.592 11.6365 52.1591 11.7269 50.9714C11.7576 50.5631 11.546 50.1278 11.408 49.7571C11.1476 49.0894 10.933 48.4039 10.7656 47.7056C10.536 46.7129 10.5036 45.6828 10.6705 44.6772C10.8668 43.5775 11.3681 42.6129 11.8389 41.6124C12.2989 40.64 12.7788 39.6582 13.0977 38.6278C13.6435 36.8621 13.389 34.8985 13.4151 33.0779C13.4457 30.8975 13.5209 28.6921 13.757 26.5244C13.8388 25.695 13.994 24.8762 14.2199 24.0783C14.4114 23.4016 17.9065 21.0727 17.9065 21.0727L22.2968 16.2622C24.0141 15.8402 25.8442 15.7605 27.6408 15.995C29.4218 16.2274 31.2193 16.7517 32.8936 17.5486C34.4804 18.3039 35.813 21.0727 35.813 21.0727C35.813 21.0727 38.8837 22.426 39.4997 23.5452C39.6496 23.8174 39.7896 24.0963 39.9194 24.3818C40.4369 25.531 40.7554 26.7636 40.8608 28.0246C40.9174 28.7189 41.9909 28.7252 41.9309 28.0199Z" fill="white"/>
<path d="M26.4502 29.4711C26.3444 31.5651 23.0769 31.5682 22.9711 29.4711C22.9359 28.7674 21.8626 28.7627 21.8978 29.4711C22.0742 32.9788 27.3471 32.9803 27.5234 29.4711C27.5587 28.7642 26.4855 28.7658 26.4502 29.4711Z" fill="white"/>
<path d="M31.0107 29.4711C30.9049 31.5651 27.6374 31.5682 27.5316 29.4711C27.4963 28.7674 26.4231 28.7627 26.4584 29.4711C26.6347 32.9788 31.9075 32.9803 32.0839 29.4711C32.1191 28.7642 31.0459 28.7658 31.0107 29.4711Z" fill="white"/>
<path d="M35.7187 25.7626C35.679 24.9068 35.3157 24.1003 34.7058 23.5138C34.0962 22.9276 33.2875 22.6073 32.4512 22.621C30.7094 22.621 29.2558 23.961 29.1839 25.7626C29.1546 26.4694 30.2281 26.4694 30.2572 25.7626C30.3645 23.1063 34.5381 23.1031 34.6454 25.7626C34.6745 26.4679 35.7478 26.471 35.7187 25.7626Z" fill="white"/>
<path d="M24.1987 25.6605C24.159 24.8047 23.7957 23.9983 23.1861 23.412C22.5762 22.8255 21.7676 22.5053 20.9313 22.5189C19.1895 22.5189 17.736 23.8589 17.6639 25.6605C17.6348 26.3676 18.7081 26.3676 18.7372 25.6605C18.8445 23.0044 23.0181 23.0013 23.1254 25.6605C23.1545 26.3661 24.228 26.3692 24.1987 25.6605Z" fill="white"/>
<path d="M28.6218 28.1096C28.5713 28.5007 27.6237 28.8006 27.3339 28.8477C26.7866 28.9373 25.8115 28.7519 25.4941 28.2039C25.4096 28.056 25.3713 28.2901 25.4603 28.1583C25.5216 28.0672 25.7363 28.0263 25.8328 28.0011C26.1725 27.899 26.5245 27.8461 26.8785 27.8441C27.1851 27.8441 28.5652 27.8251 28.6372 28.2604C28.7492 28.9563 29.7841 28.6608 29.6721 27.9682C29.4697 26.7209 27.3722 26.6832 26.4859 26.7665C25.6673 26.8433 24.045 27.2125 24.3854 28.408C24.7012 29.5217 26.2514 30.0385 27.2482 29.963C28.2447 29.8878 29.548 29.2421 29.6937 28.1143C29.7856 27.4106 28.7124 27.4184 28.6218 28.1096Z" fill="white"/>
<path d="M24.3708 15.3069L24.3126 18.6056C24.3003 19.3141 25.3732 19.3141 25.3856 18.6056L25.4438 15.3069C25.4561 14.5984 24.3831 14.5984 24.3708 15.3069Z" fill="white"/>
<path d="M26.3461 15.3068L26.2879 18.6055C26.2758 19.314 27.3488 19.314 27.3609 18.6055L27.4194 15.3068C27.3863 15.129 26.3585 14.5983 26.3461 15.3068Z" fill="white"/>
<path d="M28.2677 15.6694V18.6056C28.2553 19.314 29.3283 19.314 29.3407 18.6056V15.6694C29.353 14.961 28.2798 14.961 28.2677 15.6694Z" fill="white"/>
<path d="M69.0488 1.77564C68.5504 1.76779 67.6919 1.76779 67.3621 2.2469C67.3542 2.25862 67.3461 2.26988 67.3375 2.28069C66.4924 3.7257 66.5594 5.57564 66.6445 7.19976C66.6828 7.95691 66.5909 8.00961 66.6445 8.76519L65.6019 8.41586C65.5713 7.54247 65.6572 8.48 65.6019 7.60819C65.4789 5.69566 65.4101 3.5153 66.3734 1.80344C66.3888 1.76366 66.4099 1.72338 66.4375 1.68296C67.7086 -0.156498 71.0145 0.795433 72.681 1.36879C75.628 2.37728 78.1104 4.22302 80.142 6.61856C81.496 8.21926 83.5734 10.9022 82.9342 13.2161C82.3162 15.4467 79.4827 14.8184 77.9495 14.19C75.1775 13.0484 72.6885 11.0327 70.7061 8.72993C70.4376 9.48587 70.0671 10.2044 69.6604 10.8865L68.874 10.0713C69.3627 9.26039 69.7246 8.37637 69.9472 7.4511C70.0301 7.07253 70.5913 6.89502 70.8443 7.20919C72.8345 9.7147 75.4502 12.0333 78.4231 13.2083C79.5916 13.6685 82.103 14.3267 81.9498 12.239C81.7797 9.94875 79.8032 7.74642 78.3068 6.229C76.5253 4.3898 74.3262 3.03234 71.9067 2.27832C70.9823 1.97267 70.0199 1.80342 69.0488 1.77564Z" fill="white"/>
<path d="M51.6698 0.0445927C53.4177 -0.0889291 56.1778 -0.0449456 56.9444 1.96888C56.9662 2.02644 56.9781 2.08115 56.9816 2.13264C57.5023 4.17071 57.063 6.2603 56.4522 8.20828L55.2992 8.64519C55.8081 6.99578 56.3801 3.97799 55.9034 2.26263C55.8985 2.24577 55.8945 2.22916 55.8912 2.2128C55.554 1.46308 54.4385 1.26277 53.7413 1.1756C52.4825 1.01852 51.1776 1.15361 49.9388 1.39238C47.3335 1.88148 44.8331 2.83872 42.5531 4.21991C41.6807 4.76441 40.1448 5.79849 39.877 7.01128L42.1325 5.94357L42.7819 9.28024C43.5414 9.2766 44.2924 9.1648 44.8238 9.07852C47.3921 8.65845 49.8732 7.79927 52.1635 6.5369C52.2453 6.49002 52.3372 6.46557 52.4309 6.46588C52.5243 6.46619 52.6163 6.49127 52.6976 6.53869C52.7789 6.5861 52.8468 6.65424 52.8949 6.73649C52.9429 6.81875 52.9694 6.91232 52.9716 7.00816C53.0851 8.82562 53.013 8.45339 53.1924 10.2661L52.1635 10.8065C52.0229 9.33469 52.0097 8.9491 51.9464 7.88342C49.2062 9.28493 46.0152 10.3198 42.9732 10.3399C42.8039 10.3411 42.6302 10.3367 42.4541 10.3259L41.9009 6.73649L38.9726 8.10486L38.7712 7.40562C38.7487 5.29979 41.0337 3.79254 42.6128 2.90825C45.365 1.36724 48.5328 0.281791 51.6698 0.0445927Z" fill="white"/>
<path d="M94.5894 39.4931C94.4071 38.4408 93.6464 37.5028 92.9442 36.7566C91.9895 35.7434 90.872 34.9061 89.6401 34.281C88.4503 33.6827 87.1071 33.2601 85.7669 33.3778C84.9681 33.4486 83.6985 33.678 83.4148 34.603C83.1819 35.3666 83.8244 36.0813 84.295 36.5793C85.0525 37.3804 85.9095 38.081 86.6149 38.9355C87.4214 39.9141 87.705 40.8204 87.4322 42.0898C87.0683 43.6487 86.3232 45.0872 85.2672 46.2697C84.4592 47.1934 83.2938 48.2788 82.009 48.3275C81.875 48.3063 81.7394 48.298 81.6041 48.3025L81.4723 48.2694C81.6541 48.4003 81.7223 48.5491 81.6762 48.7157C81.7196 48.6033 81.7525 48.487 81.7743 48.3684C81.9277 47.8878 82.1269 47.4259 82.285 46.9453C83.2341 44.0768 83.1865 40.9053 81.1135 38.5428C79.1004 36.2479 77.8385 33.3809 76.8495 30.4906C76.3141 28.9453 75.8777 27.3659 75.5431 25.7624C75.2594 24.3752 75.1767 22.9883 75.0141 21.5839C74.4804 16.9719 72.7953 12.2374 69.1463 9.26379C67.7143 8.1063 66.0543 7.28055 64.2808 6.8434C62.5073 6.40624 60.6625 6.3681 58.8733 6.73159C55.0647 7.47302 51.7466 9.92198 49.5356 13.1438C48.2499 15.0521 47.3146 17.1845 46.7757 19.4366C46.1839 21.8337 46.1164 24.2747 45.9723 26.7285C45.3988 36.5163 44.5158 46.2887 43.6233 56.0499C43.6028 56.2697 43.5825 56.4897 43.562 56.7097C43.5618 56.8298 43.6004 56.9468 43.6716 57.0426C43.7428 57.1382 43.8428 57.2072 43.9561 57.239C46.4768 57.6631 49.0328 57.9192 51.5795 58.0997C56.3941 58.4423 61.3358 58.4988 66.0905 57.5516C67.2214 57.3343 68.3347 57.0293 69.4207 56.6389C69.6753 56.5446 69.9343 56.3892 70.1704 56.3467C70.4131 56.332 70.6564 56.3409 70.8973 56.3733C72.9886 56.4457 75.0815 56.5069 77.1746 56.5305C81.799 56.598 86.5551 56.4001 90.3102 53.2679C94.3134 49.9281 95.2887 44.49 94.5924 39.4869C94.4959 38.7894 93.461 39.0862 93.5576 39.779C94.1633 44.1333 93.3843 48.8664 90.1246 51.9797C86.6656 55.2785 81.9277 55.4954 77.4581 55.4355C75.3822 55.409 73.3076 55.3493 71.2315 55.2785C70.8605 55.266 70.4404 55.1921 70.0692 55.2377C69.594 55.2957 69.0956 55.5928 68.6387 55.7451C68.1251 55.9164 67.6054 56.0593 67.081 56.1976C62.5179 57.3442 57.6789 57.3379 53.0131 57.0835C50.0727 56.9459 47.1418 56.644 44.2336 56.1786L44.6275 56.7081C45.4111 48.2458 46.1409 39.7774 46.7389 31.2997C47.0761 26.5054 46.8493 21.4347 48.7092 16.9279C50.2486 13.2082 53.0913 9.98795 56.8065 8.48309C60.0678 7.16357 63.7935 7.24683 66.8846 9.00774C70.6458 11.1535 72.7372 15.255 73.599 19.4507C73.8855 20.8472 73.9761 22.2484 74.1293 23.6621C74.2907 25.0557 74.5525 26.435 74.9129 27.7887C75.7027 30.8394 76.8096 33.8899 78.3843 36.6121C78.6983 37.1595 79.0424 37.6881 79.4147 38.1956C79.8593 38.7972 80.405 39.3156 80.8177 39.9393C81.7284 41.32 81.9967 42.9693 81.7591 44.6014C81.5918 45.7467 81.1886 46.8133 80.8038 47.9003C80.5523 48.6087 80.5139 49.2057 81.3863 49.3801C83.8887 49.881 86.2117 47.1731 87.3325 45.233C88.0286 44.0297 88.5407 42.6647 88.6266 41.2604C88.6941 40.1718 88.2096 39.2307 87.564 38.3999C86.8862 37.5296 86.0537 36.8149 85.2809 36.0435C85.0065 35.7686 84.2213 35.1263 84.5709 34.8277C84.9743 34.4822 85.8114 34.4585 86.3036 34.4695C87.0008 34.4976 87.6885 34.6446 88.3383 34.9047C89.6848 35.4381 90.9099 36.2496 91.9368 37.2893C92.6146 37.9615 93.3843 38.8066 93.556 39.8027C93.6757 40.4811 94.7106 40.1859 94.5894 39.4931Z" fill="white"/>
<path d="M60.5642 23.0089C60.4553 25.5692 56.4382 25.5741 56.3278 23.0089C56.2971 22.3035 55.2239 22.3004 55.2545 23.0089C55.2927 23.8451 55.6473 24.6332 56.2433 25.2061C56.8394 25.7787 57.6298 26.0912 58.4469 26.0766C60.1518 26.0766 61.564 24.7681 61.6377 23.0152C61.6683 22.3082 60.5948 22.3098 60.5642 23.0152V23.0089Z" fill="white"/>
<path d="M65.8852 23.0089C65.7764 25.5692 61.7592 25.5741 61.6488 23.0089C61.6182 22.3035 60.545 22.3004 60.5756 23.0089C60.6137 23.8449 60.9682 24.6328 61.5639 25.2054C62.1595 25.7783 62.9495 26.0907 63.7664 26.0766C65.4713 26.0766 66.8835 24.7681 66.9571 23.0152C66.9878 22.3082 65.9143 22.3098 65.8837 23.0152L65.8852 23.0089Z" fill="white"/>
<path d="M63.1274 26.1503C63.0185 28.7108 59.0014 28.7155 58.891 26.1503C58.8604 25.445 57.7869 25.4419 57.8178 26.1503C57.8559 26.9863 58.2104 27.7742 58.8059 28.3468C59.4017 28.9197 60.1917 29.2321 61.0086 29.2182C62.7135 29.2182 64.1257 27.9097 64.1991 26.1566C64.23 25.4497 63.1565 25.4513 63.1259 26.1566L63.1274 26.1503Z" fill="white"/>
<path d="M71.4088 18.3149C71.3369 16.2728 69.6609 14.7506 67.6862 14.7506C65.7112 14.7506 64.0369 16.2743 63.9633 18.3149C63.9388 19.0233 65.012 19.0217 65.0365 18.3149C65.1516 15.0993 70.2205 15.0978 70.334 18.3149C70.3585 19.0202 71.4319 19.0233 71.4075 18.3149H71.4088Z" fill="white"/>
<path d="M58.6883 18.2225C58.6162 16.1804 56.9404 14.6582 54.9656 14.6582C52.9907 14.6582 51.3164 16.1804 51.2443 18.2225C51.2196 18.9309 52.2931 18.9293 52.3175 18.2225C52.4326 15.0069 57.5015 15.0054 57.6151 18.2225C57.6395 18.9278 58.713 18.9309 58.6883 18.2225Z" fill="white"/>
<path d="M63.0916 21.4206C63.0257 21.9908 61.7882 22.349 61.3697 22.3898C60.784 22.4463 59.493 22.2045 59.2369 21.5227C59.1756 21.3656 59.0943 21.6311 59.2369 21.4112C59.3167 21.2934 59.5697 21.2541 59.6969 21.207C60.1175 21.0791 60.5539 21.014 60.9925 21.0138C61.3727 21.0059 63.0288 20.9949 63.1101 21.5667C63.2082 22.2641 64.2415 21.9673 64.1449 21.2745C63.9519 19.8937 61.5568 19.8607 60.5923 19.933C59.7077 20.0068 57.7788 20.3775 58.139 21.7175C58.478 22.9741 60.2535 23.5664 61.3681 23.4893C62.483 23.4125 64.0147 22.7041 64.1635 21.4206C64.2523 20.7184 63.1775 20.7247 63.0916 21.4206Z" fill="white"/>
<path d="M60.3818 24.8561L60.3252 25.9227C60.3252 26.0686 60.3816 26.2084 60.4823 26.3115C60.5829 26.4147 60.7195 26.4726 60.8617 26.4726C61.0041 26.4726 61.1405 26.4147 61.241 26.3115C61.3418 26.2084 61.3982 26.0686 61.3982 25.9227L61.4566 24.8561C61.4566 24.7102 61.4 24.5704 61.2994 24.4675C61.1987 24.3643 61.0623 24.3065 60.9199 24.3065C60.7777 24.3065 60.6413 24.3643 60.5405 24.4675C60.44 24.5704 60.3834 24.7102 60.3834 24.8561H60.3818Z" fill="white"/>
<path d="M63.5109 50.0046C63.5109 58.5453 74.6577 66.8551 66.3212 66.8551C62.318 66.8551 58.4788 65.2259 55.648 62.3256C52.8174 59.4257 51.2271 55.4923 51.2271 51.3908C51.2271 47.2895 52.8174 43.3562 55.648 40.4562C58.4788 37.556 62.318 35.9268 66.3212 35.9268C74.6577 35.9252 63.5109 41.4623 63.5109 50.0046Z" fill="#F3CE7D"/>
<path d="M39.7275 35.6612V66.5864C43.7041 66.5453 47.5041 64.8982 50.3019 62.0029C53.0996 59.1074 54.669 55.1979 54.669 51.1239C54.669 47.0496 53.0996 43.1402 50.3019 40.2447C47.5041 37.3494 43.7041 35.7023 39.7275 35.6612Z" fill="#F3CE7D"/>
<path d="M62.9651 49.6012C62.9929 52.578 64.1918 55.3663 65.561 57.9268C66.2172 59.1552 66.941 60.3489 67.608 61.5681C68.0786 62.4194 68.6061 63.321 68.813 64.2871C69.2993 66.5584 65.2773 65.9114 64.1305 65.7323C60.9247 65.2256 57.9738 63.6433 55.7403 61.2333C51.1159 56.2395 50.4829 48.4215 54.2071 42.6975C56.007 39.9405 58.6496 37.874 61.7202 36.8225C63.3138 36.2858 64.9848 36.0312 66.662 36.0701C67.2324 36.0826 68.4604 36.0558 68.8086 36.5145C68.9083 36.645 68.8714 36.8163 68.7824 37.0738C68.6204 37.4782 68.4103 37.8608 68.1569 38.2128C67.5007 39.2195 66.7616 40.1651 66.0854 41.1581C64.3774 43.6712 62.9883 46.4705 62.9576 49.5934C62.9576 50.3018 64.0309 50.3018 64.0309 49.5934C64.0599 46.5257 65.5427 43.8253 67.2337 41.3906C67.8963 40.4369 68.6138 39.5213 69.2272 38.5315C69.6043 37.9235 70.0643 37.1365 69.8971 36.3825C69.7238 35.5973 68.9587 35.2625 68.2596 35.1258C66.8198 34.8353 65.2711 34.9438 63.8316 35.1714C60.3772 35.7367 57.2078 37.4729 54.8311 40.1024C49.9845 45.4762 49.3114 53.8269 53.3194 59.906C55.2324 62.8053 58.011 64.9918 61.2388 66.1375C62.9266 66.7331 64.7022 67.0243 66.4872 66.9984C67.4608 66.9828 68.6781 66.8995 69.411 66.1455C70.8462 64.6688 69.1044 62.0297 68.3378 60.6709C66.7922 57.9172 65.0598 55.1825 64.3328 52.055C64.1453 51.251 64.0465 50.428 64.0386 49.6012C64.0324 48.8928 62.959 48.8912 62.9651 49.6012Z" fill="white"/>
<path d="M38.627 35.3289V66.2525L39.1637 65.7027C33.1578 65.6178 27.6487 61.7269 25.588 55.9084C24.7899 53.6634 24.5295 51.2548 24.8289 48.8852C25.1284 46.5157 25.9788 44.2544 27.3086 42.2918C28.6386 40.3289 30.409 38.722 32.4712 37.606C34.5334 36.49 36.8269 35.8975 39.1591 35.8787C39.849 35.8691 39.8505 34.7697 39.1591 34.7791C32.6563 34.8702 26.7655 39.0941 24.5485 45.3807C22.3465 51.6436 24.2862 58.8868 29.2939 63.1109C32.0758 65.4568 35.5561 66.7597 39.1591 66.8039C39.3008 66.8019 39.4362 66.7432 39.5362 66.6407C39.6365 66.5379 39.6936 66.3993 39.6956 66.2541V35.3289C39.7002 34.622 38.627 34.6205 38.627 35.3289Z" fill="white"/>
<path d="M39.1818 35.2578V66.183C39.1838 66.3282 39.2408 66.4669 39.3411 66.5696C39.4412 66.6721 39.1994 66.7599 39.3411 66.7621C45.8437 66.671 52.1119 62.4176 54.3289 56.1312C56.5368 49.873 54.5989 42.6218 49.5897 38.3932C46.8056 36.0484 43.3236 34.7477 39.7198 34.7064C39.6358 34.7053 36.9298 34.9347 36.8661 34.9624C36.4061 35.1623 39.1123 35.7976 39.7198 35.8061C45.7258 35.8908 51.2349 39.7819 53.2956 45.6002C54.0941 47.8458 54.3547 50.2549 54.0551 52.6251C53.7556 54.9951 52.9048 57.2571 51.5743 59.2202C50.2439 61.1833 48.4728 62.7901 46.4099 63.9059C44.3468 65.0217 42.0525 65.6135 39.7198 65.6316L40.2565 66.1815V35.2578C40.2552 34.6676 39.51 34.5691 39.2613 34.9624C39.2115 35.041 39.1818 35.1395 39.1818 35.2578Z" fill="white"/>
<path d="M35.2418 46.439C35.0655 42.9313 29.7924 42.9298 29.6161 46.439C29.5808 47.1461 30.6542 47.1445 30.6895 46.439C30.7953 44.3453 34.0626 44.3419 34.1684 46.439C34.2036 47.1428 35.2771 47.1477 35.2418 46.439Z" fill="white"/>
<path d="M45.254 55.5519C47.4498 55.0617 48.6978 52.7779 48.2854 50.5707C47.8653 48.3213 45.8613 46.7912 43.6472 47.1322C42.9665 47.2374 43.2562 48.2963 43.9324 48.1924C47.6015 47.6269 48.5768 53.6904 44.9673 54.4915C44.2928 54.6487 44.578 55.7027 45.2525 55.5519H45.254Z" fill="white"/>
<path d="M31.0002 50.3474C30.1201 52.7869 27.6498 54.3435 25.1536 53.5142C24.4959 53.2958 24.2138 54.3562 24.8686 54.5744C27.9505 55.5986 30.9603 53.6163 32.0351 50.6473C32.2757 49.9829 31.2378 49.6955 31.0002 50.3552V50.3474Z" fill="white"/>
</g>
<defs>
<clipPath id="clip0_3_9">
<rect width="95" height="67" fill="white"/>
</clipPath>
</defs>
</svg>
