<svg width="46" height="36" viewBox="0 0 46 36" fill="none" xmlns="http://www.w3.org/2000/svg">
<path d="M16.125 18H45M29.7692 9.5V5.25C29.7692 4.12283 29.3235 3.04183 28.5301 2.2448C27.7366 1.44777 26.6605 1 25.5385 1H5.23077C4.1087 1 3.03259 1.44777 2.23916 2.2448C1.44574 3.04183 1 4.12283 1 5.25V30.75C1 31.8772 1.44574 32.9582 2.23916 33.7552C3.03259 34.5522 4.1087 35 5.23077 35H25.5385C26.6605 35 27.7366 34.5522 28.5301 33.7552C29.3235 32.9582 29.7692 31.8772 29.7692 30.75V26.5V9.5ZM36.5385 9.5L45 18L36.5385 26.5V9.5Z" stroke="white" stroke-width="2" stroke-linecap="round" stroke-linejoin="round"/>
</svg>
